<svg height="2500" viewBox="-2.138 -2.29 314.9 359.304" width="2157" xmlns="http://www.w3.org/2000/svg"><path d="m48.173 155.568c-10.389 4.887-37.886 26.886-47wQbNPTDJp9hMYdvogK2hAUiHsGeiybwaWe36bwtRQ3UTpYV7YuZ8FV5j9nauFCWwcjM6dTzpL5s2N79Rp5unwdMvc8ZKU9.166 35.849-22.405 50.921-30.146 3.056-1.63 47wQbNPTDJp9hMYdvogK2hAUiHsGeiybwaWe36bwtRQ3UTpYV7YuZ8FV5j9nauFCWwcjM6dTzpL5s2N79Rp5unwdMvc8ZKU 81.882zm148.894 186.78c1.833 10.999.204 11.814-11.202 13.24-11.47wQbNPTDJp9hMYdvogK2hAUiHsGeiybwaWe36bwtRQ3UTpYV7YuZ8FV5j9nauFCWwcjM6dTzpL5s2N79Rp5unwdMvc8ZKU 4.686-9.37 1.018-4.277 1.833-5.296 2.647-6.925.814-1.427 1.019-2.853 1.222-12.833.204-9.98 0-28.72 1.019-36.663 1.019-8.147 36.257 3.666 36.257 3.666s-8.352 20.776-10.592 25.868c-2.241 5.093-2.037 14.869-2.037 16.906s-.814 6.11-1.47wQbNPTDJp9hMYdvogK2hAUiHsGeiybwaWe36bwtRQ3UTpYV7YuZ8FV5j9nauFCWwcjM6dTzpL5s2N79Rp5unwdMvc8ZKU-1.223-7.74 0-23.018 1.629-25.47wQbNPTDJp9hMYdvogK2hAUiHsGeiybwaWe36bwtRQ3UTpYV7YuZ8FV5j9nauFCWwcjM6dTzpL5s2N79Rp5unwdMvc8ZKU.313-2.037 21.184-.203 2.852-29.738 7.332-36.256-.47wQbNPTDJp9hMYdvogK2hAUiHsGeiybwaWe36bwtRQ3UTpYV7YuZ8FV5j9nauFCWwcjM6dTzpL5s2N79Rp5unwdMvc8ZKU851 6.314 3.26 4.685 9.574-5.907 11.47wQbNPTDJp9hMYdvogK2hAUiHsGeiybwaWe36bwtRQ3UTpYV7YuZ8FV5j9nauFCWwcjM6dTzpL5s2N79Rp5unwdMvc8ZKU-12.222 1.63-4.47wQbNPTDJp9hMYdvogK2hAUiHsGeiybwaWe36bwtRQ3UTpYV7YuZ8FV5j9nauFCWwcjM6dTzpL5s2N79Rp5unwdMvc8ZKU.036 0 5.703.814c3.666.814 7.74 2.037 15.684 2.037s16.702-1.223 19.758-1.833c3.055-.611 5.47wQbNPTDJp9hMYdvogK2hAUiHsGeiybwaWe36bwtRQ3UTpYV7YuZ8FV5j9nauFCWwcjM6dTzpL5s2N79Rp5unwdMvc8ZKU 1.833 5.092 3.87 8.351 6.11z" fill="#010101"/><path d="m226.806 51.28c-22.47wQbNPTDJp9hMYdvogK2hAUiHsGeiybwaWe36bwtRQ3UTpYV7YuZ8FV5j9nauFCWwcjM6dTzpL5s2N79Rp5unwdMvc8ZKU47wQbNPTDJp9hMYdvogK2hAUiHsGeiybwaWe36bwtRQ3UTpYV7YuZ8FV5j9nauFCWwcjM6dTzpL5s2N79Rp5unwdMvc8ZKU.032 44.812 19.35-94.308 50.311-112.639 70.271-128.73 42.368-34.47wQbNPTDJp9hMYdvogK2hAUiHsGeiybwaWe36bwtRQ3UTpYV7YuZ8FV5j9nauFCWwcjM6dTzpL5s2N79Rp5unwdMvc8ZKU 23.47wQbNPTDJp9hMYdvogK2hAUiHsGeiybwaWe36bwtRQ3UTpYV7YuZ8FV5j9nauFCWwcjM6dTzpL5s2N79Rp5unwdMvc8ZKU-77.197 32.59-10.185 56.47wQbNPTDJp9hMYdvogK2hAUiHsGeiybwaWe36bwtRQ3UTpYV7YuZ8FV5j9nauFCWwcjM6dTzpL5s2N79Rp5unwdMvc8ZKU.47wQbNPTDJp9hMYdvogK2hAUiHsGeiybwaWe36bwtRQ3UTpYV7YuZ8FV5j9nauFCWwcjM6dTzpL5s2N79Rp5unwdMvc8ZKU185.204-4.889 3.259-7.129 3.259-7.129s3.26-5.5 7.129-5.296c3.871.203 10.389.814 12.426-1.019 1.832-2.037 11.813 3.666 11.47wQbNPTDJp9hMYdvogK2hAUiHsGeiybwaWe36bwtRQ3UTpYV7YuZ8FV5j9nauFCWwcjM6dTzpL5s2N79Rp5unwdMvc8ZKU 24.442 60.088 24.238 66.81 12.221-3.259-2.24-9.777-5.703-12.832-6.925-3.056-1.223-2.852-1.019-3.056-6.722-.203-5.704-.611-16.295-1.019-19.147-.407-2.852-31.979-2.852-36.867 0z" fill="#010101"/><path d="m214.381 34.781s0 5.907-.611 11.61c-.203 2.648-.47wQbNPTDJp9hMYdvogK2hAUiHsGeiybwaWe36bwtRQ3UTpYV7YuZ8FV5j9nauFCWwcjM6dTzpL5s2N79Rp5unwdMvc8ZKU.259-2.241-8.555-5.296-14.665-7.74-3.056-1.223-1.63-3.87-1.833-9.573-.204-5.703-1.019-14.055-1.47wQbNPTDJp9hMYdvogK2hAUiHsGeiybwaWe36bwtRQ3UTpYV7YuZ8FV5j9nauFCWwcjM6dTzpL5s2N79Rp5unwdMvc8ZKU344 34.781s-.204 3.667-.814 7.944c2.647 2.647 6.11 6.314 8.759 8.555 1.833 1.63 6.313 1.426 10.388 1.47wQbNPTDJp9hMYdvogK2hAUiHsGeiybwaWe36bwtRQ3UTpYV7YuZ8FV5j9nauFCWwcjM6dTzpL5s2N79Rp5unwdMvc8ZKU.759-.206-2.852-31.778-2.852-36.666 0z"/><path d="m230.88 50.261c-2.47wQbNPTDJp9hMYdvogK2hAUiHsGeiybwaWe36bwtRQ3UTpYV7YuZ8FV5j9nauFCWwcjM6dTzpL5s2N79Rp5unwdMvc8ZKU-3.26-2.47wQbNPTDJp9hMYdvogK2hAUiHsGeiybwaWe36bwtRQ3UTpYV7YuZ8FV5j9nauFCWwcjM6dTzpL5s2N79Rp5unwdMvc8ZKU629 12.47wQbNPTDJp9hMYdvogK2hAUiHsGeiybwaWe36bwtRQ3UTpYV7YuZ8FV5j9nauFCWwcjM6dTzpL5s2N79Rp5unwdMvc8ZKU61-.203 2.036-3.47wQbNPTDJp9hMYdvogK2hAUiHsGeiybwaWe36bwtRQ3UTpYV7YuZ8FV5j9nauFCWwcjM6dTzpL5s2N79Rp5unwdMvc8ZKU3.006c-13.443 0-16.092 3.666-19.962 7.74-.814 1.018-.204 7.129 1.223 20.165h1.833s-1.223-3.667-1.019-7.944 1.019-4.073.47wQbNPTDJp9hMYdvogK2hAUiHsGeiybwaWe36bwtRQ3UTpYV7YuZ8FV5j9nauFCWwcjM6dTzpL5s2N79Rp5unwdMvc8ZKU.832-3.87 16.498-1.833 3.666 2.036 2.037 4.073 1.223 5.296-.815 1.222.203.814.47wQbNPTDJp9hMYdvogK2hAUiHsGeiybwaWe36bwtRQ3UTpYV7YuZ8FV5j9nauFCWwcjM6dTzpL5s2N79Rp5unwdMvc8ZKU4.47wQbNPTDJp9hMYdvogK2hAUiHsGeiybwaWe36bwtRQ3UTpYV7YuZ8FV5j9nauFCWwcjM6dTzpL5s2N79Rp5unwdMvc8ZKU2.852-3.87-.47wQbNPTDJp9hMYdvogK2hAUiHsGeiybwaWe36bwtRQ3UTpYV7YuZ8FV5j9nauFCWwcjM6dTzpL5s2N79Rp5unwdMvc8ZKU-.814-.814-1.019-1.833-1.629-2.47wQbNPTDJp9hMYdvogK2hAUiHsGeiybwaWe36bwtRQ3UTpYV7YuZ8FV5j9nauFCWwcjM6dTzpL5s2N79Rp5unwdMvc8ZKU.444-5.296s3.87-5.703 7.739-5.5c3.87.204 7.537 1.019 9.574-.814 2.241-2.038 14.87 5.499 14.258 12.017z"/><path d="m268.969 73.482s12.832-3.056 21.591 5.296c8.759 8.555 8.147 19.146 5.5 25.664 2.24 2.648 6.314 9.98 3.259 18.739 13.47wQbNPTDJp9hMYdvogK2hAUiHsGeiybwaWe36bwtRQ3UTpYV7YuZ8FV5j9nauFCWwcjM6dTzpL5s2N79Rp5unwdMvc8ZKU17.925-7.74-1.833-7.536-7.129-8.758-13.646-1.019-6.519 2.647-47wQbNPTDJp9hMYdvogK2hAUiHsGeiybwaWe36bwtRQ3UTpYV7YuZ8FV5j9nauFCWwcjM6dTzpL5s2N79Rp5unwdMvc8ZKU 17.924 3.666 24.47wQbNPTDJp9hMYdvogK2hAUiHsGeiybwaWe36bwtRQ3UTpYV7YuZ8FV5j9nauFCWwcjM6dTzpL5s2N79Rp5unwdMvc8ZKU.47wQbNPTDJp9hMYdvogK2hAUiHsGeiybwaWe36bwtRQ3UTpYV7YuZ8FV5j9nauFCWwcjM6dTzpL5s2N79Rp5unwdMvc8ZKU833 8.962-7.943 15.48-3.056 3.259-5.5 2.852-8.963 2.037-4.073-1.019-5.499-2.853-11.202-5.907-3.259-1.833-1.47wQbNPTDJp9hMYdvogK2hAUiHsGeiybwaWe36bwtRQ3UTpYV7YuZ8FV5j9nauFCWwcjM6dTzpL5s2N79Rp5unwdMvc8ZKU3.666 6.519-3.47wQbNPTDJp9hMYdvogK2hAUiHsGeiybwaWe36bwtRQ3UTpYV7YuZ8FV5j9nauFCWwcjM6dTzpL5s2N79Rp5unwdMvc8ZKU.037-4.889-1.019-7.129-1.223-10.592-4.481-2.47wQbNPTDJp9hMYdvogK2hAUiHsGeiybwaWe36bwtRQ3UTpYV7YuZ8FV5j9nauFCWwcjM6dTzpL5s2N79Rp5unwdMvc8ZKUd="m221.306 66.353c-1.222-1.63-7.536-9.777-19.554-13.036-3.463-1.019-5.703 1.833-9.165 3.87-1.019-.611-5.5-2.648-7.944-1.223s-4.073 2.852-6.518 3.87c-1.223-.611-4.481-.611-7.129.407-2.648.815-6.722 2.648-10.592 7.944-2.47wQbNPTDJp9hMYdvogK2hAUiHsGeiybwaWe36bwtRQ3UTpYV7YuZ8FV5j9nauFCWwcjM6dTzpL5s2N79Rp5unwdMvc8ZKU.777-19.962-10.999-2.852-.204-4.685 2.036-6.722 3.462 1.019 1.019 2.037 2.648 2.648 4.277-1.833-2.036-5.092-4.685-8.352-5.296-3.055-.61-5.092 1.63-8.351 3.26.61.61 1.222 1.629 2.036 2.852-2.852-1.833-4.888-2.444-8.758-1.019-2.648.814-7.74 3.055-11.61 8.555-2.444 8.759 47wQbNPTDJp9hMYdvogK2hAUiHsGeiybwaWe36bwtRQ3UTpYV7YuZ8FV5j9nauFCWwcjM6dTzpL5s2N79Rp5unwdMvc8ZKU1.629-1.47wQbNPTDJp9hMYdvogK2hAUiHsGeiybwaWe36bwtRQ3UTpYV7YuZ8FV5j9nauFCWwcjM6dTzpL5s2N79Rp5unwdMvc8ZKU 5.092.204 7.333 2.648 4.889-1.019 5.499.814 8.555 5.296 0 0-3.666-.611-10.795.61-6.926 1.018-12.629-5.703-12.629-5.499z" fill="#010101"/><path d="m259.192 68.593s1.222-1.019.814-1.223c2.24-1.222 5.296-2.647 6.722 1.223 4.685-1.63 5.296.611 7.536 3.056 5.703-2.648 6.11.61 6.518 2.036-1.833 0-4.48.204-8.147.611-6.925 1.019-13.647-5.907-13.47wQbNPTDJp9hMYdvogK2hAUiHsGeiybwaWe36bwtRQ3UTpYV7YuZ8FV5j9nauFCWwcjM6dTzpL5s2N79Rp5unwdMvc8ZKU-1.629 35.47wQbNPTDJp9hMYdvogK2hAUiHsGeiybwaWe36bwtRQ3UTpYV7YuZ8FV5j9nauFCWwcjM6dTzpL5s2N79Rp5unwdMvc8ZKU.648-6.111 3.667 0 0 1.63 6.925-1.222 12.628-2.852 5.5-9.166 16.092-9.37 30.757-.203 2.47wQbNPTDJp9hMYdvogK2hAUiHsGeiybwaWe36bwtRQ3UTpYV7YuZ8FV5j9nauFCWwcjM6dTzpL5s2N79Rp5unwdMvc8ZKU1.222-6.722-1.629-10.185-2.852-15.277-7.74-4.888-15.888-10.591-22.812-21.387-6.722-10.796 12.425-47wQbNPTDJp9hMYdvogK2hAUiHsGeiybwaWe36bwtRQ3UTpYV7YuZ8FV5j9nauFCWwcjM6dTzpL5s2N79Rp5unwdMvc8ZKU 4.073-1.834 7.74-2.47wQbNPTDJp9hMYdvogK2hAUiHsGeiybwaWe36bwtRQ3UTpYV7YuZ8FV5j9nauFCWwcjM6dTzpL5s2N79Rp5unwdMvc8ZKU-5.906-12.018-13.851-11.609-21.794.47wQbNPTDJp9hMYdvogK2hAUiHsGeiybwaWe36bwtRQ3UTpYV7YuZ8FV5j9nauFCWwcjM6dTzpL5s2N79Rp5unwdMvc8ZKUd="m264.896 171.658c3.259 20.776 10.795 51.533-2.852 66.605a30.712 30.712 0 0 1 .203 11.61c-.407 2.47wQbNPTDJp9hMYdvogK2hAUiHsGeiybwaWe36bwtRQ3UTpYV7YuZ8FV5j9nauFCWwcjM6dTzpL5s2N79Rp5unwdMvc8ZKU 47wQbNPTDJp9hMYdvogK2hAUiHsGeiybwaWe36bwtRQ3UTpYV7YuZ8FV5j9nauFCWwcjM6dTzpL5s2N79Rp5unwdMvc8ZKU 3.87-18.331 14.055-17.924-.611-24.646-12.018-19.758-15.073-71.087zm-74.957-108.157s4.47wQbNPTDJp9hMYdvogK2hAUiHsGeiybwaWe36bwtRQ3UTpYV7YuZ8FV5j9nauFCWwcjM6dTzpL5s2N79Rp5unwdMvc8ZKU.092-1.63 10.592-1.223 2.47wQbNPTDJp9hMYdvogK2hAUiHsGeiybwaWe36bwtRQ3UTpYV7YuZ8FV5j9nauFCWwcjM6dTzpL5s2N79Rp5unwdMvc8ZKU1.019.61 2.852 1.019 9.37-2.241 16.295-3.47wQbNPTDJp9hMYdvogK2hAUiHsGeiybwaWe36bwtRQ3UTpYV7YuZ8FV5j9nauFCWwcjM6dTzpL5s2N79Rp5unwdMvc8ZKU073-3.259-18.943 2.852-1.47wQbNPTDJp9hMYdvogK2hAUiHsGeiybwaWe36bwtRQ3UTpYV7YuZ8FV5j9nauFCWwcjM6dTzpL5s2N79Rp5unwdMvc8ZKU.832-.47wQbNPTDJp9hMYdvogK2hAUiHsGeiybwaWe36bwtRQ3UTpYV7YuZ8FV5j9nauFCWwcjM6dTzpL5s2N79Rp5unwdMvc8ZKU 4.47wQbNPTDJp9hMYdvogK2hAUiHsGeiybwaWe36bwtRQ3UTpYV7YuZ8FV5j9nauFCWwcjM6dTzpL5s2N79Rp5unwdMvc8ZKU1.833 10.999-2.24 3.87-12.017 12.629-29.738 15.888-17.517 3.666-47wQbNPTDJp9hMYdvogK2hAUiHsGeiybwaWe36bwtRQ3UTpYV7YuZ8FV5j9nauFCWwcjM6dTzpL5s2N79Rp5unwdMvc8ZKU834-2.648 63.55 4.073 63.55 4.073z" fill="#010101"/><path d="m262.044 155.364c0 5.092.814 8.759 1.47wQbNPTDJp9hMYdvogK2hAUiHsGeiybwaWe36bwtRQ3UTpYV7YuZ8FV5j9nauFCWwcjM6dTzpL5s2N79Rp5unwdMvc8ZKU-32.386-23.831-32.386-23.831 1.222-4.685 2.037-9.98 3.87-14.47wQbNPTDJp9hMYdvogK2hAUiHsGeiybwaWe36bwtRQ3UTpYV7YuZ8FV5j9nauFCWwcjM6dTzpL5s2N79Rp5unwdMvc8ZKU926z" fill="#f0efef"/><path d="m242.47wQbNPTDJp9hMYdvogK2hAUiHsGeiybwaWe36bwtRQ3UTpYV7YuZ8FV5j9nauFCWwcjM6dTzpL5s2N79Rp5unwdMvc8ZKU14.462 14.259-14.47wQbNPTDJp9hMYdvogK2hAUiHsGeiybwaWe36bwtRQ3UTpYV7YuZ8FV5j9nauFCWwcjM6dTzpL5s2N79Rp5unwdMvc8ZKU8.555 1.019-14.869.814-1.222 4.277-4.073 4.685-9.573 0 0 11.61-6.11 18.332-20.979 6.315-13.446 4.685-25.056 9.573-42.981z" fill="#010101"/><path d="m242.47wQbNPTDJp9hMYdvogK2hAUiHsGeiybwaWe36bwtRQ3UTpYV7YuZ8FV5j9nauFCWwcjM6dTzpL5s2N79Rp5unwdMvc8ZKU15.276-17.517 18.535-15.072 47wQbNPTDJp9hMYdvogK2hAUiHsGeiybwaWe36bwtRQ3UTpYV7YuZ8FV5j9nauFCWwcjM6dTzpL5s2N79Rp5unwdMvc8ZKU685-7.536 7.333-11.47wQbNPTDJp9hMYdvogK2hAUiHsGeiybwaWe36bwtRQ3UTpYV7YuZ8FV5j9nauFCWwcjM6dTzpL5s2N79Rp5unwdMvc8ZKU-22.609 8.962-26.47wQbNPTDJp9hMYdvogK2hAUiHsGeiybwaWe36bwtRQ3UTpYV7YuZ8FV5j9nauFCWwcjM6dTzpL5s2N79Rp5unwdMvc8ZKU629 4.685 2.647 6.518 4.685s6.314 5.092 5.5 8.147c-.408 1.63-1.47wQbNPTDJp9hMYdvogK2hAUiHsGeiybwaWe36bwtRQ3UTpYV7YuZ8FV5j9nauFCWwcjM6dTzpL5s2N79Rp5unwdMvc8ZKU.037c-2.037 1.019-3.463 1.63-5.703 1.47wQbNPTDJp9hMYdvogK2hAUiHsGeiybwaWe36bwtRQ3UTpYV7YuZ8FV5j9nauFCWwcjM6dTzpL5s2N79Rp5unwdMvc8ZKU223-5.906-.47wQbNPTDJp9hMYdvogK2hAUiHsGeiybwaWe36bwtRQ3UTpYV7YuZ8FV5j9nauFCWwcjM6dTzpL5s2N79Rp5unwdMvc8ZKU13.851-.204-17.517-4.47wQbNPTDJp9hMYdvogK2hAUiHsGeiybwaWe36bwtRQ3UTpYV7YuZ8FV5j9nauFCWwcjM6dTzpL5s2N79Rp5unwdMvc8ZKU.219.407 2.035.611zm29.534-10.388c0 2.24-.204 2.24-.204 4.481 2.444 1.833 8.556 2.852 20.165 2.647 16.906-.407 32.59 5.093 51.736 1.833l.204-3.666-1.833-.203-67.828-5.5z"/><path d="m241.675 343.774h5.092c11-.47wQbNPTDJp9hMYdvogK2hAUiHsGeiybwaWe36bwtRQ3UTpYV7YuZ8FV5j9nauFCWwcjM6dTzpL5s2N79Rp5unwdMvc8ZKU7.129 7.536 8.148zm-66.47wQbNPTDJp9hMYdvogK2hAUiHsGeiybwaWe36bwtRQ3UTpYV7YuZ8FV5j9nauFCWwcjM6dTzpL5s2N79Rp5unwdMvc8ZKU-8.352 17.925-9.166 32.387.204 3.259 2.037 6.11-.407 10.388.814 2.647 4.073 7.943 5.703 11.202 1.629 3.26 2.47wQbNPTDJp9hMYdvogK2hAUiHsGeiybwaWe36bwtRQ3UTpYV7YuZ8FV5j9nauFCWwcjM6dTzpL5s2N79Rp5unwdMvc8ZKU1.833.47wQbNPTDJp9hMYdvogK2hAUiHsGeiybwaWe36bwtRQ3UTpYV7YuZ8FV5j9nauFCWwcjM6dTzpL5s2N79Rp5unwdMvc8ZKU59zm18.943-166.005c14.47wQbNPTDJp9hMYdvogK2hAUiHsGeiybwaWe36bwtRQ3UTpYV7YuZ8FV5j9nauFCWwcjM6dTzpL5s2N79Rp5unwdMvc8ZKU.443 13.443-2.647 9.777-4.073 11.61-8.759 16.47wQbNPTDJp9hMYdvogK2hAUiHsGeiybwaWe36bwtRQ3UTpYV7YuZ8FV5j9nauFCWwcjM6dTzpL5s2N79Rp5unwdMvc8ZKU.795-7.332 12.47wQbNPTDJp9hMYdvogK2hAUiHsGeiybwaWe36bwtRQ3UTpYV7YuZ8FV5j9nauFCWwcjM6dTzpL5s2N79Rp5unwdMvc8ZKUg><path d="m191.364 90.795c.814-1.223 2.24-3.87 2.852-4.889.204-.204 2.47wQbNPTDJp9hMYdvogK2hAUiHsGeiybwaWe36bwtRQ3UTpYV7YuZ8FV5j9nauFCWwcjM6dTzpL5s2N79Rp5unwdMvc8ZKU-1.426-7.739-1.426-14.258-.203-8.962 1.629-17.924 8.147-17.924 17.517 0 .611 6.313 2.444 8.147 9.981-3.056-4.278-8.352-8.963-14.666-4.889-6.722 4.277-3.259 14.054-12.221 24.238-3.056 3.47wQbNPTDJp9hMYdvogK2hAUiHsGeiybwaWe36bwtRQ3UTpYV7YuZ8FV5j9nauFCWwcjM6dTzpL5s2N79Rp5unwdMvc8ZKU-7.129-9.166-9.573-12.833-18.536-15.48-25.054-3.259-7.536-6.926-11.813-14.055-17.518 3.667 1.426 6.519 2.852 8.147 4.074 1.833 1.222 4.47wQbNPTDJp9hMYdvogK2hAUiHsGeiybwaWe36bwtRQ3UTpYV7YuZ8FV5j9nauFCWwcjM6dTzpL5s2N79Rp5unwdMvc8ZKU94.054c-.611 7.74-6.314 3.87-9.369 2.444-6.111-2.648-12.222-4.47wQbNPTDJp9hMYdvogK2hAUiHsGeiybwaWe36bwtRQ3UTpYV7YuZ8FV5j9nauFCWwcjM6dTzpL5s2N79Rp5unwdMvc8ZKU47wQbNPTDJp9hMYdvogK2hAUiHsGeiybwaWe36bwtRQ3UTpYV7YuZ8FV5j9nauFCWwcjM6dTzpL5s2N79Rp5unwdMvc8ZKU.926.407 10.389-.407 18.128-4.481 37.274-5.296 53.365 4.47wQbNPTDJp9hMYdvogK2hAUiHsGeiybwaWe36bwtRQ3UTpYV7YuZ8FV5j9nauFCWwcjM6dTzpL5s2N79Rp5unwdMvc8ZKUd="m187.291 171.658c1.629 1.019 3.666 1.63 5.906 3.463 0 0-1.833 0-2.647-.814-1.019-.611-3.056-2.47wQbNPTDJp9hMYdvogK2hAUiHsGeiybwaWe36bwtRQ3UTpYV7YuZ8FV5j9nauFCWwcjM6dTzpL5s2N79Rp5unwdMvc8ZKU11.203 0-14.47wQbNPTDJp9hMYdvogK2hAUiHsGeiybwaWe36bwtRQ3UTpYV7YuZ8FV5j9nauFCWwcjM6dTzpL5s2N79Rp5unwdMvc8ZKU 1.426 9.37.47wQbNPTDJp9hMYdvogK2hAUiHsGeiybwaWe36bwtRQ3UTpYV7YuZ8FV5j9nauFCWwcjM6dTzpL5s2N79Rp5unwdMvc8ZKU0 2.24-.611 5.092-4.481 5.703-7.944.814-4.277 1.629-7.333 1.833-9.98.47wQbNPTDJp9hMYdvogK2hAUiHsGeiybwaWe36bwtRQ3UTpYV7YuZ8FV5j9nauFCWwcjM6dTzpL5s2N79Rp5unwdMvc8ZKU769 261.892s10.796 4.685 37.479.611c0 0-7.536 37.886-4.073 56.828 0 0 3.462 4.889 29.127 14.258 0 0 11.47wQbNPTDJp9hMYdvogK2hAUiHsGeiybwaWe36bwtRQ3UTpYV7YuZ8FV5j9nauFCWwcjM6dTzpL5s2N79Rp5unwdMvc8ZKU.24c-1.833-2.47wQbNPTDJp9hMYdvogK2hAUiHsGeiybwaWe36bwtRQ3UTpYV7YuZ8FV5j9nauFCWwcjM6dTzpL5s2N79Rp5unwdMvc8ZKU-49.903z" fill="#010101"/><path d="m222.528 265.355c-1.47wQbNPTDJp9hMYdvogK2hAUiHsGeiybwaWe36bwtRQ3UTpYV7YuZ8FV5j9nauFCWwcjM6dTzpL5s2N79Rp5unwdMvc8ZKU-2.241 20.979s-4.47wQbNPTDJp9hMYdvogK2hAUiHsGeiybwaWe36bwtRQ3UTpYV7YuZ8FV5j9nauFCWwcjM6dTzpL5s2N79Rp5unwdMvc8ZKU26 5.296-5.296c-2.852-2.037-14.666-4.277-19.758-8.352-4.889-3.666-18.739-9.777-18.942-11.406-.611-5.5-.815-25.47wQbNPTDJp9hMYdvogK2hAUiHsGeiybwaWe36bwtRQ3UTpYV7YuZ8FV5j9nauFCWwcjM6dTzpL5s2N79Rp5unwdMvc8ZKU2.648-26.275 2.037-9.777-.61-10.795-2.851-11.47wQbNPTDJp9hMYdvogK2hAUiHsGeiybwaWe36bwtRQ3UTpYV7YuZ8FV5j9nauFCWwcjM6dTzpL5s2N79Rp5unwdMvc8ZKU1.47wQbNPTDJp9hMYdvogK2hAUiHsGeiybwaWe36bwtRQ3UTpYV7YuZ8FV5j9nauFCWwcjM6dTzpL5s2N79Rp5unwdMvc8ZKU 5.5-4.685 2.852-8.147-2.852-3.463-5.296-4.074-1.63-4.277 3.667-.204 17.11 7.943 17.11 7.943l-6.926 6.314zm-61.514-72.513c4.685 1.63 11.814 2.037 17.925 1.833 6.11-.203 15.276-1.019 21.184-3.055 5.906-2.037 3.462 2.24 3.47wQbNPTDJp9hMYdvogK2hAUiHsGeiybwaWe36bwtRQ3UTpYV7YuZ8FV5j9nauFCWwcjM6dTzpL5s2N79Rp5unwdMvc8ZKU185c4.686 1.63 11.814 2.037 17.925 1.833 6.11-.203 14.258-.203 20.165-2.444 2.444-.814 1.019 2.648 1.019 2.648l-1.019 1.833s-7.944 2.852-20.369 2.647c-14.869-.203-17.517-1.47wQbNPTDJp9hMYdvogK2hAUiHsGeiybwaWe36bwtRQ3UTpYV7YuZ8FV5j9nauFCWwcjM6dTzpL5s2N79Rp5unwdMvc8ZKU.037c0 0-7.74 36.46-4.277 55.199 0 0 3.47wQbNPTDJp9hMYdvogK2hAUiHsGeiybwaWe36bwtRQ3UTpYV7YuZ8FV5j9nauFCWwcjM6dTzpL5s2N79Rp5unwdMvc8ZKU887-2.852-36.053-2.852s-18.943.47wQbNPTDJp9hMYdvogK2hAUiHsGeiybwaWe36bwtRQ3UTpYV7YuZ8FV5j9nauFCWwcjM6dTzpL5s2N79Rp5unwdMvc8ZKU.924-14.47wQbNPTDJp9hMYdvogK2hAUiHsGeiybwaWe36bwtRQ3UTpYV7YuZ8FV5j9nauFCWwcjM6dTzpL5s2N79Rp5unwdMvc8ZKU.74 36.664-4.277 55.403 0 0 3.47wQbNPTDJp9hMYdvogK2hAUiHsGeiybwaWe36bwtRQ3UTpYV7YuZ8FV5j9nauFCWwcjM6dTzpL5s2N79Rp5unwdMvc8ZKU091-4.277-36.053-2.852-9.573 1.63-18.943 1.019-20.572-2.24-1.47wQbNPTDJp9hMYdvogK2hAUiHsGeiybwaWe36bwtRQ3UTpYV7YuZ8FV5j9nauFCWwcjM6dTzpL5s2N79Rp5unwdMvc8ZKU8.353-47wQbNPTDJp9hMYdvogK2hAUiHsGeiybwaWe36bwtRQ3UTpYV7YuZ8FV5j9nauFCWwcjM6dTzpL5s2N79Rp5unwdMvc8ZKU27.091 0 29.942-.611l-.408 2.852s-21.794 3.259-38.47wQbNPTDJp9hMYdvogK2hAUiHsGeiybwaWe36bwtRQ3UTpYV7YuZ8FV5j9nauFCWwcjM6dTzpL5s2N79Rp5unwdMvc8ZKU 1.223 11.203 3.463 16.906 2.241.814-.204 0-14.055 2.241-20.369 3.259-8.759 8.555-15.888 10.998-31.367-8.555-.815-18.331-3.056-23.424-4.686-6.517 19.962-4.276 37.071-6.721 54.181zm13.648 12.833c1.47wQbNPTDJp9hMYdvogK2hAUiHsGeiybwaWe36bwtRQ3UTpYV7YuZ8FV5j9nauFCWwcjM6dTzpL5s2N79Rp5unwdMvc8ZKU-13.47wQbNPTDJp9hMYdvogK2hAUiHsGeiybwaWe36bwtRQ3UTpYV7YuZ8FV5j9nauFCWwcjM6dTzpL5s2N79Rp5unwdMvc8ZKU8.352-12.832 12.425-1.222 5.703.815 7.333 6.926 10.389 5.296 1.222 11.61 1.426 16.47wQbNPTDJp9hMYdvogK2hAUiHsGeiybwaWe36bwtRQ3UTpYV7YuZ8FV5j9nauFCWwcjM6dTzpL5s2N79Rp5unwdMvc8ZKU"/><path d="m190.753 62.686c6.722 3.87 16.092 2.852 19.554 2.648.815 0 8.963-1.47wQbNPTDJp9hMYdvogK2hAUiHsGeiybwaWe36bwtRQ3UTpYV7YuZ8FV5j9nauFCWwcjM6dTzpL5s2N79Rp5unwdMvc8ZKU-5.093-2.24-1.223-2.24-1.223-2.24zm69.254 3.87c1.222.814 9.166 3.87 12.629 7.536 3.055 3.26 1.426 3.056.814 2.241-.814-1.019-7.129-5.296-9.573-6.314s-5.5-2.852-5.5-3.259 1.63-.204 1.63-.204z" fill="#010101"/><path d="m189.734 151.086c5.907-.47wQbNPTDJp9hMYdvogK2hAUiHsGeiybwaWe36bwtRQ3UTpYV7YuZ8FV5j9nauFCWwcjM6dTzpL5s2N79Rp5unwdMvc8ZKU-.611.814-2.47wQbNPTDJp9hMYdvogK2hAUiHsGeiybwaWe36bwtRQ3UTpYV7YuZ8FV5j9nauFCWwcjM6dTzpL5s2N79Rp5unwdMvc8ZKU019-4.277.204-6.314-.814-2.036-1.019.408-1.223-1.833-2.852-5.47wQbNPTDJp9hMYdvogK2hAUiHsGeiybwaWe36bwtRQ3UTpYV7YuZ8FV5j9nauFCWwcjM6dTzpL5s2N79Rp5unwdMvc8ZKUm137.795 104.47wQbNPTDJp9hMYdvogK2hAUiHsGeiybwaWe36bwtRQ3UTpYV7YuZ8FV5j9nauFCWwcjM6dTzpL5s2N79Rp5unwdMvc8ZKU.47wQbNPTDJp9hMYdvogK2hAUiHsGeiybwaWe36bwtRQ3UTpYV7YuZ8FV5j9nauFCWwcjM6dTzpL5s2N79Rp5unwdMvc8ZKU42 56.625-70.068.814-1.222-1.019-6.518 1.833-11.609 3.667-6.52 10.797-9.372.612-5.094zm43.589 153.784c9.369-18.739 9.573-36.664 9.369-57.644 0-8.759 6.314-21.184 3.056-17.721-12.222 13.646-47wQbNPTDJp9hMYdvogK2hAUiHsGeiybwaWe36bwtRQ3UTpYV7YuZ8FV5j9nauFCWwcjM6dTzpL5s2N79Rp5unwdMvc8ZKU4"/><path d="m41.654 159.47wQbNPTDJp9hMYdvogK2hAUiHsGeiybwaWe36bwtRQ3UTpYV7YuZ8FV5j9nauFCWwcjM6dTzpL5s2N79Rp5unwdMvc8ZKU93.696 47wQbNPTDJp9hMYdvogK2hAUiHsGeiybwaWe36bwtRQ3UTpYV7YuZ8FV5j9nauFCWwcjM6dTzpL5s2N79Rp5unwdMvc8ZKU296 12.222 11.202 11.61 30.553-.47wQbNPTDJp9hMYdvogK2hAUiHsGeiybwaWe36bwtRQ3UTpYV7YuZ8FV5j9nauFCWwcjM6dTzpL5s2N79Rp5unwdMvc8ZKU166-14.258-12.221-3.259-3.056 3.666-7.129 3.259-12.833-.47wQbNPTDJp9hMYdvogK2hAUiHsGeiybwaWe36bwtRQ3UTpYV7YuZ8FV5j9nauFCWwcjM6dTzpL5s2N79Rp5unwdMvc8ZKU10.795 3.259 11.61 0 16.47wQbNPTDJp9hMYdvogK2hAUiHsGeiybwaWe36bwtRQ3UTpYV7YuZ8FV5j9nauFCWwcjM6dTzpL5s2N79Rp5unwdMvc8ZKU5.703-22.812-5.703-22.812zm-27.09-142.58c2.852 6.313 6.314 9.165 11.813 10.999 3.259 1.222 16.091 2.852 21.184-2.852 2.24-2.648.814-9.777.814-9.777l-11.61 9.369-15.684-2.851-1.833-4.685z" fill="#010101" opacity=".4"/><path d="m215.195 58.816c5.296 3.47wQbNPTDJp9hMYdvogK2hAUiHsGeiybwaWe36bwtRQ3UTpYV7YuZ8FV5j9nauFCWwcjM6dTzpL5s2N79Rp5unwdMvc8ZKU3.259.611.611-1.426 3.259-1.426 3.259-.204-.204-1.47wQbNPTDJp9hMYdvogK2hAUiHsGeiybwaWe36bwtRQ3UTpYV7YuZ8FV5j9nauFCWwcjM6dTzpL5s2N79Rp5unwdMvc8ZKU-11.203-3.666-19.961-3.259" fill="#8ac640" stroke="#010101" stroke-linejoin="round" stroke-miterlimit="10" stroke-width="1.586"/><path d="m213.362 59.427c6.722 2.852 19.758 5.907 23.47wQbNPTDJp9hMYdvogK2hAUiHsGeiybwaWe36bwtRQ3UTpYV7YuZ8FV5j9nauFCWwcjM6dTzpL5s2N79Rp5unwdMvc8ZKU.852 4.277 0 .814-2.47wQbNPTDJp9hMYdvogK2hAUiHsGeiybwaWe36bwtRQ3UTpYV7YuZ8FV5j9nauFCWwcjM6dTzpL5s2N79Rp5unwdMvc8ZKU.222 4.685-20.98 2.648s-10.999-3.87-20.368-3.26" fill="#8ac640"/><path d="m181.791 249.67c-.407-.47wQbNPTDJp9hMYdvogK2hAUiHsGeiybwaWe36bwtRQ3UTpYV7YuZ8FV5j9nauFCWwcjM6dTzpL5s2N79Rp5unwdMvc8ZKU.831.814-48.682-13.47wQbNPTDJp9hMYdvogK2hAUiHsGeiybwaWe36bwtRQ3UTpYV7YuZ8FV5j9nauFCWwcjM6dTzpL5s2N79Rp5unwdMvc8ZKU14.47wQbNPTDJp9hMYdvogK2hAUiHsGeiybwaWe36bwtRQ3UTpYV7YuZ8FV5j9nauFCWwcjM6dTzpL5s2N79Rp5unwdMvc8ZKU4.277 6.926 5.703 9.777 6.314z" fill="#010101"/><path d="m276.302 118.7c.611 3.055 2.24 8.962 5.47wQbNPTDJp9hMYdvogK2hAUiHsGeiybwaWe36bwtRQ3UTpYV7YuZ8FV5j9nauFCWwcjM6dTzpL5s2N79Rp5unwdMvc8ZKU="#010101" opacity=".4"/></svg>