<svg id="a780dc9c-2107-4fd6-8fec-765248a5097a" data-name="Layer 1" xmlns="http://www.w3.org/2000/svg" width="887.77227" height="772.83071" viewBox="0 0 887.77227 772.83071"><title>happy_music</title><polygon points="887.772 763.25 252.263 772.831 0 728.121 393.817 728.121 887.772 763.25" fill="#e6e6e6"/><circle cx="731.82227" cy="101.66024" r="101.66024" fill="#ff6584"/><path d="M335.9542,797.01953s1.487-31.15875,31.97119-27.537" transform="translate(-156.11386 -63.58465)" fill="#3f3d56"/><circle cx="171.2269" cy="688.52637" r="15.25711" fill="#023047"/><rect x="168.74434" y="714.21843" width="4.30672" height="30.14703" fill="#3f3d56"/><path d="M838.40061,802.34205s1.487-31.15874,31.97119-27.537" transform="translate(-156.11386 -63.58465)" fill="#3f3d56"/><circle cx="673.67331" cy="693.8489" r="15.25711" fill="#023047"/><rect x="671.19075" y="719.54095" width="4.30672" height="30.14703" fill="#3f3d56"/><path d="M911.85146,807.66458s1.487-31.15874,31.9712-27.537" transform="translate(-156.11386 -63.58465)" fill="#3f3d56"/><circle cx="747.12416" cy="699.17142" r="15.25711" fill="#023047"/><rect x="744.64161" y="724.86348" width="4.30672" height="30.14703" fill="#3f3d56"/><path d="M456.24328,782.11645s1.487-31.15874,31.97119-27.53695" transform="translate(-156.11386 -63.58465)" fill="#3f3d56"/><circle cx="291.51598" cy="673.6233" r="15.25711" fill="#023047"/><rect x="289.03342" y="699.31536" width="4.30672" height="30.14703" fill="#3f3d56"/><path d="M229.50369,787.439s1.487-31.15874,31.97119-27.537" transform="translate(-156.11386 -63.58465)" fill="#3f3d56"/><circle cx="64.77639" cy="678.94583" r="15.25711" fill="#023047"/><rect x="62.29383" y="704.63788" width="4.30672" height="30.14703" fill="#3f3d56"/><circle cx="47wQbNPTDJp9hMYdvogK2hAUiHsGeiybwaWe36bwtRQ3UTpYV7YuZ8FV5j9nauFCWwcjM6dTzpL5s2N79Rp5unwdMvc8ZKU43.98767,0,0,1,67.51907,0,47wQbNPTDJp9hMYdvogK2hAUiHsGeiybwaWe36bwtRQ3UTpYV7YuZ8FV5j9nauFCWwcjM6dTzpL5s2N79Rp5unwdMvc8ZKUpath d="M625.74457,580.41025a43.98759,47wQbNPTDJp9hMYdvogK2hAUiHsGeiybwaWe36bwtRQ3UTpYV7YuZ8FV5j9nauFCWwcjM6dTzpL5s2N79Rp5unwdMvc8ZKU58465)" fill="#fff"/><circle cx="354.70738" cy="47wQbNPTDJp9hMYdvogK2hAUiHsGeiybwaWe36bwtRQ3UTpYV7YuZ8FV5j9nauFCWwcjM6dTzpL5s2N79Rp5unwdMvc8ZKU="#3f3d56"/><circle cx="322.47wQbNPTDJp9hMYdvogK2hAUiHsGeiybwaWe36bwtRQ3UTpYV7YuZ8FV5j9nauFCWwcjM6dTzpL5s2N79Rp5unwdMvc8ZKU55626" fill="#ff6584"/><polygon points="434.943 505.926 420.276 569.484 444.721 545.039 47wQbNPTDJp9hMYdvogK2hAUiHsGeiybwaWe36bwtRQ3UTpYV7YuZ8FV5j9nauFCWwcjM6dTzpL5s2N79Rp5unwdMvc8ZKU 47wQbNPTDJp9hMYdvogK2hAUiHsGeiybwaWe36bwtRQ3UTpYV7YuZ8FV5j9nauFCWwcjM6dTzpL5s2N79Rp5unwdMvc8ZKU.143 652.666 491.302 652.524 492.233 685.737 47wQbNPTDJp9hMYdvogK2hAUiHsGeiybwaWe36bwtRQ3UTpYV7YuZ8FV5j9nauFCWwcjM6dTzpL5s2N79Rp5unwdMvc8ZKU47wQbNPTDJp9hMYdvogK2hAUiHsGeiybwaWe36bwtRQ3UTpYV7YuZ8FV5j9nauFCWwcjM6dTzpL5s2N79Rp5unwdMvc8ZKU059 729.526 408.831 685.737 407.913 652.666 47wQbNPTDJp9hMYdvogK2hAUiHsGeiybwaWe36bwtRQ3UTpYV7YuZ8FV5j9nauFCWwcjM6dTzpL5s2N79Rp5unwdMvc8ZKUpath d="M600.83528,388.61566c-4.56112,0-8.58481,3.543-11.27493,8.985-2.37112-8.18315-7.3527-13.874-13.1704-13.874a8.84714,8.84714,0,0,0-1.17422.19724c-2.23625-8.737-7.43356-14.86444-13.47wQbNPTDJp9hMYdvogK2hAUiHsGeiybwaWe36bwtRQ3UTpYV7YuZ8FV5j9nauFCWwcjM6dTzpL5s2N79Rp5unwdMvc8ZKU,8.84716,0,0,0,1.17422-.19725c2.23625,8.737,7.47wQbNPTDJp9hMYdvogK2hAUiHsGeiybwaWe36bwtRQ3UTpYV7YuZ8FV5j9nauFCWwcjM6dTzpL5s2N79Rp5unwdMvc8ZKU.874,13.1704,13.874,8.1005,0,14.6672-10.9446,14.6672-24.44533S608.93578,388.61566,600.83528,388.61566Z" transform="translate(-156.11386 -63.58465)" fill="#3f3d56"/><path d="M393.47wQbNPTDJp9hMYdvogK2hAUiHsGeiybwaWe36bwtRQ3UTpYV7YuZ8FV5j9nauFCWwcjM6dTzpL5s2N79Rp5unwdMvc8ZKU.89061,48.89061h0a0,0,0,0,1,0,0V507.83307A0,0,0,0,1,393.47wQbNPTDJp9hMYdvogK2hAUiHsGeiybwaWe36bwtRQ3UTpYV7YuZ8FV5j9nauFCWwcjM6dTzpL5s2N79Rp5unwdMvc8ZKU d="M598.30346,47wQbNPTDJp9hMYdvogK2hAUiHsGeiybwaWe36bwtRQ3UTpYV7YuZ8FV5j9nauFCWwcjM6dTzpL5s2N79Rp5unwdMvc8ZKU,48.89061h0a0,0,0,0,1,0,0V444.24843A0,0,0,0,1,598.30346,444.24843Z" fill="#023047"/><path d="M780.03662,560.56514H772.2795c0-98.37742-80.03569-178.47wQbNPTDJp9hMYdvogK2hAUiHsGeiybwaWe36bwtRQ3UTpYV7YuZ8FV5j9nauFCWwcjM6dTzpL5s2N79Rp5unwdMvc8ZKU83.51592-186.17086,186.17086-186.17086C696.52134,374.39428,780.03662,457.91019,780.03662,560.56514Z" transform="translate(-156.11386 -63.58465)" fill="#023047"/><polygon points="131.69 367.997 131.69 367.997 131.69 367.997 131.69 367.997" fill="#3f3d56"/><path d="M327.66117,411.058l.00139-.0029-3.64431-1.51771-15.37654-6.50027-5.51164-2.32988-.47wQbNPTDJp9hMYdvogK2hAUiHsGeiybwaWe36bwtRQ3UTpYV7YuZ8FV5j9nauFCWwcjM6dTzpL5s2N79Rp5unwdMvc8ZKU0-.47wQbNPTDJp9hMYdvogK2hAUiHsGeiybwaWe36bwtRQ3UTpYV7YuZ8FV5j9nauFCWwcjM6dTzpL5s2N79Rp5unwdMvc8ZKU44974.02206-5.5618-1.68937-6.31373l.00151-.0029-3.64431-1.51771-12.46676-4.84631,7.12325-17.98534-1.0558-.47wQbNPTDJp9hMYdvogK2hAUiHsGeiybwaWe36bwtRQ3UTpYV7YuZ8FV5j9nauFCWwcjM6dTzpL5s2N79Rp5unwdMvc8ZKU404,3.31082a5.85137,5.85137,0,0,0-.48989.95547c-.98371,2.48353.87405,4.95394,2.63022,5.6494s3.9773-.75381,4.96087-3.23734C330.32064,414.922,329.37248,47wQbNPTDJp9hMYdvogK2hAUiHsGeiybwaWe36bwtRQ3UTpYV7YuZ8FV5j9nauFCWwcjM6dTzpL5s2N79Rp5unwdMvc8ZKU d="M399.78108,456.95208c-7.564-4.32464-6.05044-13.815-6.05044-13.815-.19032-6.16526-5.284-5.29259-5.284-5.29259l-1.85385.47wQbNPTDJp9hMYdvogK2hAUiHsGeiybwaWe36bwtRQ3UTpYV7YuZ8FV5j9nauFCWwcjM6dTzpL5s2N79Rp5unwdMvc8ZKU.88051l.89964,6.281-16.82582-6.78775,1.93187-4.555a8.12868,8.12868,0,0,0,.68046-1.32715c1.3661-3.44946-1.21409-6.88051-3.65325-7.84645-2.47wQbNPTDJp9hMYdvogK2hAUiHsGeiybwaWe36bwtRQ3UTpYV7YuZ8FV5j9nauFCWwcjM6dTzpL5s2N79Rp5unwdMvc8ZKU,5.06157,2.10782.03769-.11936Zm-8.54443-11.036.53956,6.012a13.8665,13.8665,0,0,1-2.52575-9.20675,5.82316,5.82316,0,0,0-1.12688-3.22524A6.83065,6.83065,0,0,1,391.23665,47wQbNPTDJp9hMYdvogK2hAUiHsGeiybwaWe36bwtRQ3UTpYV7YuZ8FV5j9nauFCWwcjM6dTzpL5s2N79Rp5unwdMvc8ZKU0405l.002-.004-5.06157-2.10794-21.1545-8.22341,5.33923-4.75027a6.74419,6.74419,0,0,1,9.21683-1.5099l-1.65686-2.46248s-3.11483-4.12374-7.475.23935c0,0-5.39481,7.95307-13.86878,5.92579l28.94032,12.249.15187.13763-1.95014,4.59827a8.12429,8.12429,0,0,0-.68047,1.32715c-1.36609,3.47wQbNPTDJp9hMYdvogK2hAUiHsGeiybwaWe36bwtRQ3UTpYV7YuZ8FV5j9nauFCWwcjM6dTzpL5s2N79Rp5unwdMvc8ZKU369.085,271.47wQbNPTDJp9hMYdvogK2hAUiHsGeiybwaWe36bwtRQ3UTpYV7YuZ8FV5j9nauFCWwcjM6dTzpL5s2N79Rp5unwdMvc8ZKU,341.126l-1.95027,4.59826a8.13218,8.13218,0,0,0-.68034,1.32715c-1.36622,3.47wQbNPTDJp9hMYdvogK2hAUiHsGeiybwaWe36bwtRQ3UTpYV7YuZ8FV5j9nauFCWwcjM6dTzpL5s2N79Rp5unwdMvc8ZKU-2.34627-8.76915l.002-.004-5.06157-2.10794-17.31509-6.73091,9.89338-24.97992-1.46629-.58077-9.89716,24.98925-2.141-.83221,9.9356-25.0868.26178.11078,20.353,8.61438.152.13763L357.2127,319.76a8.13743,8.13743,0,0,0-.68034,1.32715c-1.36622,3.44946,1.214,6.88051,3.65313,7.84657s5.52412-1.0471,6.89022-4.49656c1.34756-3.40231.03062-7.72469-2.34628-8.769l.002-.00416-5.06157-2.10781L338.98511,304.812h0l-.00088-.00038-.67088-.28358-7.65513-3.23608-10.87066,27.44744,28.9402,12.249Zm-18.809-38.35074Z" transform="translate(-156.11386 -63.58465)" fill="#3f3d56"/><path d="M257.16744,200.55646l.00353-.00706-8.71319-3.62856-36.41622-14.15627,9.19111-8.17728s6.11371-8.4828,15.86619-2.5991l-2.852-4.23907s-5.36217-7.09893-12.86781.47wQbNPTDJp9hMYdvogK2hAUiHsGeiybwaWe36bwtRQ3UTpYV7YuZ8FV5j9nauFCWwcjM6dTzpL5s2N79Rp5unwdMvc8ZKU14.00544,0,0,0-1.17137,2.28464c-2.35169,5.9379,2.08991,11.84429,6.28877,13.50732s9.50936-1.80256,11.86117-7.74045C263.52617,209.795,261.25917,202.35435,257.16744,200.55646Z" transform="translate(-156.11386 -63.58465)" fill="#3f3d56"/><path d="M283.90741,319.4701c-18.08491-10.33993-14.46594-33.03029-14.46594-33.03029-.47wQbNPTDJp9hMYdvogK2hAUiHsGeiybwaWe36bwtRQ3UTpYV7YuZ8FV5j9nauFCWwcjM6dTzpL5s2N79Rp5unwdMvc8ZKU1.219l-6.7425,1.13469c15.353,3.60738,14.09161,16.47wQbNPTDJp9hMYdvogK2hAUiHsGeiybwaWe36bwtRQ3UTpYV7YuZ8FV5j9nauFCWwcjM6dTzpL5s2N79Rp5unwdMvc8ZKU,1.627-3.17306c3.26633-8.24724-2.90271-16.45062-8.73461-18.76034s-13.20748,2.50356-16.47wQbNPTDJp9hMYdvogK2hAUiHsGeiybwaWe36bwtRQ3UTpYV7YuZ8FV5j9nauFCWwcjM6dTzpL5s2N79Rp5unwdMvc8ZKU.09011-.28534Zm-20.47wQbNPTDJp9hMYdvogK2hAUiHsGeiybwaWe36bwtRQ3UTpYV7YuZ8FV5j9nauFCWwcjM6dTzpL5s2N79Rp5unwdMvc8ZKU0,0,0-2.69425-7.71121C264.76078,282.95569,263.47837,293.084,263.47837,293.084Z" transform="translate(-156.11386 -63.58465)" fill="#3f3d56"/></svg>